<svg width="24" height="24" viewBox="0 0 24 24" fill="none" xmlns="http://www.w3.org/2000/svg">
<rect width="24" height="24" />
<path d="M-340 -327C-340 -328.105 -339.105 -329 -338 -329H654C655.105 -329 656 -328.105 656 -327V708C656 709.105 655.105 710 654 710H-338C-339.105 710 -340 709.105 -340 708V-327Z" fill="none"/>
<path d="M-338 -328H654V-330H-338V-328ZM655 -327V708H657V-327H655ZM654 709H-338V711H654V709ZM-339 708V-327H-341V708H-339ZM-338 709C-338.552 709 -339 708.552 -339 708H-341C-341 709.657 -339.657 711 -338 711V709ZM655 708C655 708.552 654.552 709 654 709V711C655.657 711 657 709.657 657 708H655ZM654 -328C654.552 -328 655 -327.552 655 -327H657C657 -328.657 655.657 -330 654 -330V-328ZM-338 -330C-339.657 -330 -341 -328.657 -341 -327H-339C-339 -327.552 -338.552 -328 -338 -328V-330Z" fill="black" fill-opacity="0.1"/>
<path d="M20 6L9 17L4 12" stroke="white" stroke-width="2" stroke-linecap="round" stroke-linejoin="round"/>
</svg>
